{"title":"Welcome To The Punch 2013 BRRip 480p x264 - VYTO [P2PDL]","uid":8481982,"size":372678252,"categoryP":"video","categoryS":"movies","magnet":"?xt=urn:btih:018e973b054defa30c1bf771d5f4d9e999db7678&amp;dn=Welcome+To+The+Punch+2013+BRRip+480p+x264+-+VYTO+%5BP2PDL%5D&amp;tr=udp%3A%2F%2Ftracker.openbittorrent.com%3A80&amp;tr=udp%3A%2F%2Fopen.demonii.com%3A1337&amp;tr=udp%3A%2F%2Ftracker.coppersurfer.tk%3A6969&amp;tr=udp%3A%2F%2Fexodus.desync.com%3A6969","seeders":1,"leechers":0,"uploader":"ValidusVyto","files":-1,"time":1368759553,"description":"_________________________  Visit us at _________________________\n  &lt;a href=&quot;\nhttp://p2pdl.com&quot; rel=&quot;nofollow&quot; target=&quot;_NEW&quot;&gt;\nhttp://p2pdl.com&lt;/a&gt;  ____________________________ &lt;a href=&quot; http://p2pdl.com&quot; rel=&quot;nofollow&quot; target=&quot;_NEW&quot;&gt; http://p2pdl.com&lt;/a&gt;\n\n\nWelcome To The Punch 2013 BRRip 480p x264 - VYTO\n\n\nGenre: Action | Adventure | Crime\nPlot: Ex-criminal Jacob Sternwood is forced to return to London when his son is involved in a heist gone\nwrong. This gives his nemesis, detective Max Lewinsky, one last chance to catch the man he's always been\nafter.    \nDirector: Eran Creevy\nStars: James McAvoy, Andrea Riseborough, Mark Strong.\nRated: R for violence and language.\n\n\nInfo: &lt;a href=&quot;\nhttp://www.imdb.com/title/tt1684233/&quot; rel=&quot;nofollow&quot; target=&quot;_NEW&quot;&gt;\nhttp://www.imdb.com/title/tt1684233/&lt;/a&gt;\n\nTrailer:\n\n\nFormat                         : MPEG-4\nFile size                      : 351 MiB\nDuration                       : 1h 46mn\nOverall bit rate               : 461 Kbps\nSource                         : 720p.Bluray.x264.DTS-NYDIC\n\nVideo\nFormat                         : AVC\nBit rate                       : 448 Kbps\nWidth                          : 720 pixels\nHeight                         : 400 pixels\nDisplay aspect ratio           : 16:9\nFrame rate mode                : Constant\nFrame rate                     : 23.976 fps\nStream size                    : 319 MiB (91%)\nWriting library                : x264 core 130 r2273\n\nAudio\nID                             : 2\nBit rate mode                  : Variable\nBit rate                       : 40.0 Kbps\nChannel(s)                     : 2 channels\nChannel positions              : Front: L R\nSampling rate                  : 44.1 KHz\nStream size                    : 30.5 MiB (9%)\nLanguage                       : English\n\nSubtitle                       : N/a\n\n &lt;a href=&quot;\nhttp://www.ultraimg.com/images/1GkiM.png&quot; rel=&quot;nofollow&quot; target=&quot;_NEW&quot;&gt;\nhttp://www.ultraimg.com/images/1GkiM.png&lt;/a&gt; &lt;a href=&quot;\nhttp://www.ultraimg.com/images/ApV8x.png&quot; rel=&quot;nofollow&quot; target=&quot;_NEW&quot;&gt;\nhttp://www.ultraimg.com/images/ApV8x.png&lt;/a&gt; &lt;a href=&quot;\nhttp://www.ultraimg.com/images/Shagz.png&quot; rel=&quot;nofollow&quot; target=&quot;_NEW&quot;&gt;\nhttp://www.ultraimg.com/images/Shagz.png&lt;/a&gt; &lt;a href=&quot;\nhttp://www.ultraimg.com/images/zhBjK.png&quot; rel=&quot;nofollow&quot; target=&quot;_NEW&quot;&gt;\nhttp://www.ultraimg.com/images/zhBjK.png&lt;/a&gt; &lt;a href=&quot;\nhttp://www.ultraimg.com/images/ZeCFN.png&quot; rel=&quot;nofollow&quot; target=&quot;_NEW&quot;&gt;\nhttp://www.ultraimg.com/images/ZeCFN.png&lt;/a&gt; &lt;a href=&quot;\nhttp://www.ultraimg.com/images/FGM7w.png&quot; rel=&quot;nofollow&quot; target=&quot;_NEW&quot;&gt;\nhttp://www.ultraimg.com/images/FGM7w.png&lt;/a&gt;\n\n\n----------------------------------------------------------------------------------------------------\n\n\nEncoded using revolutionary 10bit encoding, which enables us to provide you more crispier \nand sharper images at small sizes, just make sure you follow our instructions without a fault.\nRecommend to you to use latest version of VLC player. Install K-Lite Codec Pack or shark007 codecs\nin case of any kind of problem in playback (For non-VLC Media Player users). Alternatively, install\nCore AVC codecs, the fastest decoder that there is coupled with Community Center Codec Pack and play\non Windows Media Player Classic. Check sample to be sure.\nEnjoy!\n\nEncoder Notes:Looking For Early Access To Anything You Can Provide DVDScr, R5, DVDR, BluRay, Direct\nAudio, Music Releases and Seedboxes. We require dedicated servers, so as to do more \nand fast releases of movies.\nIf You Got anything to offer please contact us at &quot;&lt;a class=&quot;__cf_email__&quot; href=&quot;/cdn-cgi/l/email-protection&quot; data-cfemail=&quot;a3c0cccdd7c2c0d7e3d391d3c7cf8dc0ccce&quot;&gt;[email&amp;#160;protected]&lt;/a&gt;&lt;script data-cfhash='f9e31' type=&quot;text/javascript&quot;&gt;\n/* &lt;![CDATA[ */!function(){try{var t=&quot;currentScript&quot;in document?document.currentScript:function(){for(var t=document.getElementsByTagName(&quot;script&quot;),e=t.length;e--;)if(t[e].getAttribute(&quot;data-cfhash&quot;))return t[e]}();if(t&amp;&amp;t.previousSibling){var e,r,n,i,c=t.previousSibling,a=c.getAttribute(&quot;data-cfemail&quot;);if(a){for(e=&quot;&quot;,r=parseInt(a.substr(0,2),16),n=2;a.length-n;n+=2)i=parseInt(a.substr(n,2),16)^r,e+=String.fromCharCode(i);e=document.createTextNode(e),c.parentNode.replaceChild(e,c)}t.parentNode.removeChild(t);}}catch(u){}}()/* ]]&gt; */&lt;/script&gt;&quot;.\n\nFace book Fan Page:   &lt;a href=&quot;\nhttp://www.fb.me/p2pdl&quot; rel=&quot;nofollow&quot; target=&quot;_NEW&quot;&gt;\nhttp://www.fb.me/p2pdl&lt;/a&gt;","torrent":{"xt":"urn:btih:018e973b054defa30c1bf771d5f4d9e999db7678","amp;dn":"Welcome+To+The+Punch+2013+BRRip+480p+x264+-+VYTO+%5BP2PDL%5D","amp;tr":["udp%3A%2F%2Ftracker.openbittorrent.com%3A80","udp%3A%2F%2Fopen.demonii.com%3A1337","udp%3A%2F%2Ftracker.coppersurfer.tk%3A6969","udp%3A%2F%2Fexodus.desync.com%3A6969"],"infoHash":"018e973b054defa30c1bf771d5f4d9e999db7678","infoHashBuffer":{"type":"Buffer","data":[1,142,151,59,5,77,239,163,12,27,247,113,213,244,217,233,153,219,118,120]},"announce":[],"urlList":[]}}